<svg xmlns:mydata="http://www.w3.org/2000/svg" mydata:contrastcolor="86C8BC" mydata:template="Contrast" mydata:presentation="2.5" mydata:layouttype="undefined" mydata:specialfontid="undefined" mydata:id1="461" mydata:id2="220" mydata:companyname="Levi A" xmlns="http://www.w3.org/2000/svg" viewBox="178.6 115 192.9 240" class="prefix__watermark-logo"><g data-paper-data="{&quot;isGlobalGroup&quot;:true,&quot;bounds&quot;:{&quot;x&quot;:178.55056063887776,&quot;y&quot;:114.99999999999999,&quot;width&quot;:192.8988787222445,&quot;height&quot;:240}}" fill="#101820" fill-rule="none" stroke-miterlimit="10" font-family="none" font-weight="none" font-size="none" text-anchor="none" style="mix-blend-mode:normal"><g data-paper-data="{&quot;isSecondaryText&quot;:true}" fill-rule="nonzero"><path d="M277.4 351.2h-4.8l-1 3.8h-5.5l4.5-16.2a2 2 0 0 1 1.9-1.4h5c.5 0 .8.1 1.2.4.3.2.6.6.7 1l4.5 16.2h-5.6zm-.9-3.9-.8-3.8a22 22 0 0 1-.4-2h-.6l-.4 2-.8 3.8z" data-paper-data="{&quot;glyphName&quot;:&quot;A&quot;,&quot;glyphIndex&quot;:0,&quot;firstGlyphOfWord&quot;:true,&quot;word&quot;:1}" fill="#fff"/></g><g data-paper-data="{&quot;isPrimaryText&quot;:true}" fill-rule="nonzero" fill="#fff"><path d="M197.4 323.4v-55c0-5.7 1.6-7.2 5-8h-23.8c3.5.8 4.9 2.3 4.9 8v44c0 8.2-.8 10.2-5 11zm28.4 0v-16.7c-1.7 11.8-5.4 16.4-15.8 16.7z" data-paper-data="{&quot;glyphName&quot;:&quot;L&quot;,&quot;glyphIndex&quot;:0,&quot;firstGlyphOfWord&quot;:true,&quot;word&quot;:1}"/><path d="M250.6 323.4v-63h-18.9c3.4.8 5 2.2 5 7v45c0 7.2-.5 10-5 11zm14.9-63c10.2.4 13.8 5 15.5 16.8v-16.8zm15.5 63v-16.7c-1.7 11.8-5.3 16.4-15.6 16.7zm-10.5-38.9c-.9 5.9-3 7.3-11 7.5 8 .3 10.1 1.9 11 7.6z" data-paper-data="{&quot;glyphName&quot;:&quot;E&quot;,&quot;glyphIndex&quot;:1,&quot;word&quot;:1}"/><path d="M330.4 260.4c5.4 1.7 6.7 4.8 2.5 15.6 4.6-10.8 8.4-13.9 15.2-15.6zm-16.2 64.2 7.3-18.2-14.7-38.9c-1.8-5-.8-6.4 2.3-7h-24.7c3.6.6 5.7 1.9 7.5 6.7z" data-paper-data="{&quot;glyphName&quot;:&quot;V&quot;,&quot;glyphIndex&quot;:2,&quot;word&quot;:1}"/><path d="M371.4 323.4c-3.5-.6-4.9-2.3-4.9-7.8v-44.2c0-8.1.7-10 5-11h-24c3.6.8 5 2.3 5 8v44c0 8.1-.7 10-5 11z" data-paper-data="{&quot;glyphName&quot;:&quot;I&quot;,&quot;glyphIndex&quot;:3,&quot;lastGlyphOfWord&quot;:true,&quot;word&quot;:1}"/></g><g data-paper-data="{&quot;isIcon&quot;:&quot;true&quot;,&quot;iconType&quot;:&quot;icon&quot;,&quot;rawIconId&quot;:&quot;2164494&quot;,&quot;selectedEffects&quot;:{&quot;container&quot;:&quot;&quot;,&quot;transformation&quot;:&quot;&quot;,&quot;pattern&quot;:&quot;&quot;},&quot;isDetailed&quot;:false,&quot;iconStyle&quot;:&quot;standalone&quot;,&quot;bounds&quot;:{&quot;x&quot;:212.64266134375964,&quot;y&quot;:114.99999999999999,&quot;width&quot;:124.71467731248077,&quot;height&quot;:118.06323201297111},&quot;fillRule&quot;:&quot;evenodd&quot;,&quot;suitableAsStandaloneIcon&quot;:true}" fill-rule="evenodd"><path d="M212.6 164.3a63.2 63.2 0 0 0 40.2-49.3 63.2 63.2 0 0 0-40.2 49.3zm84.6-49.3a63.2 63.2 0 0 0 40.2 49.3 63 63 0 0 0-40.2-49.3zM275 182.9a8.9 8.9 0 1 0 0-17.7 8.9 8.9 0 0 0 0 17.7zm-62.4.8a63.2 63.2 0 0 0 40.2 49.4 63.2 63.2 0 0 0-40.2-49.4zm84.6 49.4a63.2 63.2 0 0 0 40.2-49.4 63.2 63.2 0 0 0-40.2 49.4z" data-paper-data="{&quot;isPathIcon&quot;:true}" fill="#fff"/></g></g><g class="prefix__watermark-group" opacity="0" fill="#fff"><path class="prefix__watermark-path" d="M129.5 370.3a11.9 11.9 0 0 1 2.6 5.6 12 12 0 0 1 .1 3 11.8 11.8 0 0 1-.6 3 12.3 12.3 0 0 1-1.4 2.6 11.7 11.7 0 0 1-2.2 2.4 12 12 0 0 1-2.6 1.6 13 13 0 0 1-3 1 12.5 12.5 0 0 1-3 0 12.2 12.2 0 0 1-2.8-.6 11.8 11.8 0 0 1-2.8-1.4 12.2 12.2 0 0 1-4-4.7 11.8 11.8 0 0 1-.9-3 12.1 12.1 0 0 1 0-3 11.5 11.5 0 0 1 .6-2.9 11.7 11.7 0 0 1 3.5-5 11.4 11.4 0 0 1 2.6-1.7 11.6 11.6 0 0 1 3-.9 10.7 10.7 0 0 1 3-.1 11.7 11.7 0 0 1 5.6 2 11.7 11.7 0 0 1 2.3 2.1m-1.4 8.8a13 13 0 0 1-1.2 2.3 9.7 9.7 0 0 1-1.8 2 7.4 7.4 0 0 1-2.4 1.4 6.2 6.2 0 0 1-5-.5 8.7 8.7 0 0 1-4-4.6 6.7 6.7 0 0 1-.3-2.6 6 6 0 0 1 .8-2.5 7.2 7.2 0 0 1 1.8-2.1 9.6 9.6 0 0 1 1-.8 8.2 8.2 0 0 1 1.2-.7 8.1 8.1 0 0 1 1.2-.4 12.7 12.7 0 0 1 1.3-.4l2 2.4a12.8 12.8 0 0 0-1.6.2 7.9 7.9 0 0 0-1.2.3 4.5 4.5 0 0 0-1 .5 6.4 6.4 0 0 0-1 .6 4.5 4.5 0 0 0-1.1 1.4 3.9 3.9 0 0 0-.4 1.6 4.1 4.1 0 0 0 .2 1.6 6.1 6.1 0 0 0 2.4 2.9 4.4 4.4 0 0 0 1.5.5 4 4 0 0 0 1.7-.2 4.7 4.7 0 0 0 1.5-.9 10.5 10.5 0 0 0 .9-.8 5.7 5.7 0 0 0 .6-.9 10.1 10.1 0 0 0 .6-1.1 12.2 12.2 0 0 0 .4-1.5l2 2.3m-14.5 4.6a8.9 8.9 0 0 0 2.8 2.2 9 9 0 0 0 3.3 1 9.2 9.2 0 0 0 3.4-.5 8.7 8.7 0 0 0 3.1-1.6 8.8 8.8 0 0 0 2.2-2.8 9.2 9.2 0 0 0 1-3.3 9 9 0 0 0-4.8-8.8 9 9 0 0 0-6.7-.5 9 9 0 0 0-5.4 4.4 9 9 0 0 0-.5 6.7 8.8 8.8 0 0 0 1.7 3.2M147 349l-1.8.6a24.4 24.4 0 0 0-2.4 1 28.4 28.4 0 0 0-2.8 1.4 20.7 20.7 0 0 0-2.7 2l-1.8 1.5a15 15 0 0 0-1 1.2 4 4 0 0 0-.6 1 2.3 2.3 0 0 0-.3.6 1.2 1.2 0 0 0 0 .5 1.8 1.8 0 0 0 .2.3 1.1 1.1 0 0 0 1 .3 5.5 5.5 0 0 0 1.5-.4l2-.9 2.2-1.1 2.5-1.3a31 31 0 0 1 2.6-1.2 19 19 0 0 1 2.6-.8 9.3 9.3 0 0 1 2.5-.3 6.3 6.3 0 0 1 2.2.5 5.1 5.1 0 0 1 2 1.5 6.3 6.3 0 0 1 1.3 2.6 6 6 0 0 1 .1 2.6 8.3 8.3 0 0 1-.9 2.5 17.8 17.8 0 0 1-1.6 2.4 24 24 0 0 1-2 2.1l-2.1 1.9a33.8 33.8 0 0 1-5.3 3.7 32.3 32.3 0 0 1-5 2.3l-3.6-4.3a21.4 21.4 0 0 0 5.4-2 27.2 27.2 0 0 0 5.4-3.5 21.6 21.6 0 0 0 2.4-2.2 8.7 8.7 0 0 0 1.2-1.7 2.3 2.3 0 0 0 .3-1.2 1.3 1.3 0 0 0-.3-.8 1.2 1.2 0 0 0-1-.4 4.3 4.3 0 0 0-1.6.4 15.8 15.8 0 0 0-2 .8l-2.2 1.2-2.5 1.3c-.8.5-1.7.9-2.5 1.2a22.4 22.4 0 0 1-2.6 1 10 10 0 0 1-2.4.2 5.8 5.8 0 0 1-2.2-.4 5 5 0 0 1-1.9-1.5 6.1 6.1 0 0 1-1.3-2.4 6 6 0 0 1-.1-2.4 8.3 8.3 0 0 1 .8-2.4 14 14 0 0 1 1.5-2.2 22.4 22.4 0 0 1 1.8-2l2-1.8a30.4 30.4 0 0 1 7.1-4.6l2.3-1 3.6 4.2M186.8 337.6l-10.6-12.7 3.9 18.3-4.7 3.9-17.3-7 10.6 12.6-4.8 4-15.1-18 6.6-5.4 18.7 7.5-4.2-19.7 6.6-5.6 15 18-4.7 4M208.8 313.2l-10 8.5 1.2 4.8-5.4 4.5-5.7-25.9 5.4-4.5 24.5 10-5.4 4.6-4.6-2m-11.2 3.5 6.6-5.6-8.9-3.8 2.3 9.3M227.5 281.4l-1.8.6a24.4 24.4 0 0 0-2.4 1 26.1 26.1 0 0 0-2.7 1.4 20.7 20.7 0 0 0-2.7 2l-1.8 1.5a13.4 13.4 0 0 0-1 1.3 4.3 4.3 0 0 0-.7.9 2.5 2.5 0 0 0-.2.6 1.2 1.2 0 0 0 0 .5 1.8 1.8 0 0 0 .2.3 1.1 1.1 0 0 0 1 .3 5.5 5.5 0 0 0 1.5-.3l2-1 2.3-1.1 2.5-1.3a31 31 0 0 1 2.5-1.2 19 19 0 0 1 2.6-.8 9.3 9.3 0 0 1 2.5-.3 6 6 0 0 1 2.2.5 5 5 0 0 1 2 1.5 6.5 6.5 0 0 1 1.3 2.6 6 6 0 0 1 .1 2.6 8.3 8.3 0 0 1-.9 2.5 16.3 16.3 0 0 1-1.6 2.4 21.4 21.4 0 0 1-2 2.1l-2.1 1.9a33.4 33.4 0 0 1-5.3 3.7 32 32 0 0 1-5 2.3l-3.5-4.3a21.4 21.4 0 0 0 5.4-1.9 27.2 27.2 0 0 0 5.4-3.5 21.6 21.6 0 0 0 2.3-2.3 8.7 8.7 0 0 0 1.2-1.7 2.3 2.3 0 0 0 .2-1.2 1.3 1.3 0 0 0-.3-.7 1.2 1.2 0 0 0-1-.5 4.3 4.3 0 0 0-1.5.4 16.5 16.5 0 0 0-2 .9l-2.3 1.2-2.5 1.3-2.5 1.2a24.5 24.5 0 0 1-2.5.8 10 10 0 0 1-2.4.4 5.8 5.8 0 0 1-2.2-.5 5 5 0 0 1-1.9-1.4 6.1 6.1 0 0 1-1.3-2.4 5.8 5.8 0 0 1-.1-2.4 8 8 0 0 1 .8-2.4 14.6 14.6 0 0 1 1.5-2.3 22.3 22.3 0 0 1 1.9-2q1-1 2-1.7a30.4 30.4 0 0 1 7-4.6l2.4-1 3.5 4.2M261.6 274.7l-6.3-7.5-12.3 10.4 6.3 7.5-4.9 4-15-18 4.8-4 5.5 6.5 12.3-10.3-5.5-6.5 4.9-4.1 15 18-4.8 4M272.2 265.9l-15.1-18 4.9-4 15 18-4.8 4M299.6 242.8l-22.5-2.1 10.4 12.3-4.8 4-15.1-18 5.2-4.4 22.6 2.3-10.4-12.4 4.8-4 15.1 18-5.2 4.4M306.7 205.5a31.9 31.9 0 0 1 5.3-3.6 34.5 34.5 0 0 1 5.1-2.4l3.7 4.4a20.8 20.8 0 0 0-2.4.6 20.5 20.5 0 0 0-2.6 1 25.1 25.1 0 0 0-2.7 1.5 23.9 23.9 0 0 0-2.8 2 20.4 20.4 0 0 0-2.8 2.8 12.8 12.8 0 0 0-1.7 2.5 7 7 0 0 0-.7 2.2 6 6 0 0 0 .7 3.7 8.2 8.2 0 0 0 1 1.4 9.1 9.1 0 0 0 1 1 6.4 6.4 0 0 0 1.5 1 6.7 6.7 0 0 0 1.9.4 6.5 6.5 0 0 0 2.3-.2 11.7 11.7 0 0 0 2.7-1 19.4 19.4 0 0 0 3.2-2.3l1.4-1.3a14.6 14.6 0 0 0 1-1.1 11.5 11.5 0 0 0 .8-1l.8-1.1-1.8-2.2-5.5 4.6-3.3-4 10.3-8.6 7.7 9.2a29 29 0 0 1-1.7 2.4l-2 2.5a48 48 0 0 1-4.7 4.6 31 31 0 0 1-3.6 2.6 22.6 22.6 0 0 1-3.6 1.8 15.6 15.6 0 0 1-3.6 1 10.7 10.7 0 0 1-3.5-.2 10.4 10.4 0 0 1-3.3-1.4 12.5 12.5 0 0 1-3-2.6 12 12 0 0 1-2-3.5 10.4 10.4 0 0 1-.8-3.5 11.1 11.1 0 0 1 .5-3.5 15.7 15.7 0 0 1 1.6-3.4 21.6 21.6 0 0 1 2.4-3.3 30.3 30.3 0 0 1 3.1-3M337 211.6l-15.2-18 4.9-4 11.8 14 13-11 3.4 3.8-18 15.1M374.5 164.7a12.3 12.3 0 0 1 2.6 4.8 10.4 10.4 0 0 1 0 5 14.6 14.6 0 0 1-2.3 5 25.6 25.6 0 0 1-4.6 4.9 26 26 0 0 1-5.6 3.6 14.8 14.8 0 0 1-5.3 1.5 10.4 10.4 0 0 1-5-1 13.2 13.2 0 0 1-6.9-8.1 10.5 10.5 0 0 1 0-5 14.5 14.5 0 0 1 2.4-5 25.2 25.2 0 0 1 4.6-4.9 25 25 0 0 1 5.6-3.6 14.4 14.4 0 0 1 5.3-1.5 10.3 10.3 0 0 1 5 1 12.2 12.2 0 0 1 4.2 3.3m-4.9 4.2a8.4 8.4 0 0 0-2-1.8 5.5 5.5 0 0 0-2.6-.8 7.7 7.7 0 0 0-3.4.6 14.5 14.5 0 0 0-4 2.5 16.7 16.7 0 0 0-2.3 2.4 10.2 10.2 0 0 0-1.4 2.2 6.7 6.7 0 0 0-.6 2.1 5.7 5.7 0 0 0 .1 2 6.2 6.2 0 0 0 .6 1.6 9.8 9.8 0 0 0 1 1.4 10.5 10.5 0 0 0 1.3 1.3 6.7 6.7 0 0 0 1.6.9 6.1 6.1 0 0 0 1.8.4 6.8 6.8 0 0 0 2.2-.2 11 11 0 0 0 2.4-1 17.7 17.7 0 0 0 2.8-2 14.4 14.4 0 0 0 3.2-3.5 7.7 7.7 0 0 0 1.1-3.1 5.5 5.5 0 0 0-.4-2.8 8.5 8.5 0 0 0-1.3-2.3M382.7 141.8a32.3 32.3 0 0 1 5.3-3.7 34.1 34.1 0 0 1 5.2-2.4l3.6 4.5a19.6 19.6 0 0 0-2.3.6 22 22 0 0 0-2.6 1 26 26 0 0 0-2.8 1.4 23.9 23.9 0 0 0-2.8 2 21 21 0 0 0-2.8 2.8 13.2 13.2 0 0 0-1.7 2.5 7.3 7.3 0 0 0-.6 2.3 6.4 6.4 0 0 0 0 2 5.8 5.8 0 0 0 .6 1.6 8.1 8.1 0 0 0 1 1.4 9.2 9.2 0 0 0 1 1.1 6.6 6.6 0 0 0 1.5 1 6 6 0 0 0 1.9.4 6.8 6.8 0 0 0 2.3-.2 12 12 0 0 0 2.7-1 18.6 18.6 0 0 0 3.2-2.3 24 24 0 0 0 3.3-3.5l.7-1-1.8-2.2-5.4 4.5-3.3-3.9 10.3-8.6 7.7 9.1a29 29 0 0 1-1.7 2.5l-2 2.5a40.7 40.7 0 0 1-4.7 4.6 31 31 0 0 1-3.6 2.6 22.1 22.1 0 0 1-3.6 1.8 15.6 15.6 0 0 1-3.7.9 11 11 0 0 1-3.5-.1 10.8 10.8 0 0 1-3.2-1.4 12.8 12.8 0 0 1-3-2.6 12.1 12.1 0 0 1-2.1-3.5 10.7 10.7 0 0 1-.8-3.5 11.2 11.2 0 0 1 .5-3.5 15.5 15.5 0 0 1 1.6-3.4 21.4 21.4 0 0 1 2.4-3.3 30.2 30.2 0 0 1 3.1-3M428.6 119.3a12.3 12.3 0 0 1 2.6 4.8 10.4 10.4 0 0 1 0 5 14.5 14.5 0 0 1-2.3 5 25.3 25.3 0 0 1-4.6 4.9 26 26 0 0 1-5.6 3.7 14.8 14.8 0 0 1-5.3 1.4 10.6 10.6 0 0 1-5-.9 12.2 12.2 0 0 1-4.3-3.4 12 12 0 0 1-2.6-4.8 10.5 10.5 0 0 1 0-5 14.4 14.4 0 0 1 2.4-5 27.9 27.9 0 0 1 10.2-8.5 14.5 14.5 0 0 1 5.3-1.4 10.3 10.3 0 0 1 5 .9 12.2 12.2 0 0 1 4.2 3.4m-4.9 4a8.2 8.2 0 0 0-2-1.6 5.6 5.6 0 0 0-2.6-1 7.9 7.9 0 0 0-3.4.7 14.5 14.5 0 0 0-4 2.5 16.2 16.2 0 0 0-2.3 2.4 9.8 9.8 0 0 0-1.4 2.2 7 7 0 0 0-.6 2.1 6 6 0 0 0 .1 2 6.2 6.2 0 0 0 .6 1.6 8.5 8.5 0 0 0 1 1.5 9.2 9.2 0 0 0 1.3 1.2 6.7 6.7 0 0 0 1.6 1 6 6 0 0 0 1.8.3 6.9 6.9 0 0 0 2.2-.2 11.3 11.3 0 0 0 2.4-1 17.6 17.6 0 0 0 2.8-2 14.7 14.7 0 0 0 3.2-3.4 7.7 7.7 0 0 0 1-3.2 5.5 5.5 0 0 0-.3-2.7 8.6 8.6 0 0 0-1.3-2.3"/></g></svg>